<?xml version="1.0" encoding="utf-8"?>
<!-- Generator: Adobe Illustrator 25.0.0, SVG Export Plug-In . SVG Version: 6.00 Build 0)  -->
<svg version="1.1" id="Capa_1" xmlns="http://www.w3.org/2000/svg" xmlns:xlink="http://www.w3.org/1999/xlink" x="0px" y="0px"
	 viewBox="0 0 22 22" style="enable-background:new 0 0 22 22;" xml:space="preserve">
<style type="text/css">
	.st0{fill:#FF7643;}
</style>
<g>
	<g>
		<g>
			<path class="st0" d="M7.1,14.3c-0.4,0-0.6-0.4-0.6-0.7c0-0.2,0.1-0.5,0.4-0.6c0.4-0.1,0.7,0,1.1,0.5c0.2,0.2,0.6,0.2,0.9,0
				c0.2-0.2,0.4-0.6,0.1-0.9c-0.4-0.4-0.7-0.7-1.2-0.9V11c0-0.4-0.2-0.6-0.6-0.6c-0.4,0-0.6,0.2-0.6,0.6v0.7l0,0
				c-0.7,0.2-1.2,1-1.2,1.8c0,0.5,0.2,1,0.6,1.3s0.9,0.6,1.3,0.6c0.4,0,0.6,0.2,0.6,0.6c0,0.2-0.1,0.5-0.4,0.6c-0.2,0.1-0.6,0-1-0.2
				c-0.2-0.2-0.6-0.2-0.9,0s-0.2,0.6,0,0.9c0.2,0.2,0.6,0.5,1,0.6v0.7c0,0.4,0.2,0.6,0.6,0.6s0.6-0.2,0.6-0.6V18
				c0.7-0.2,1.3-1,1.3-1.8C9,15.2,8.2,14.3,7.1,14.3z"/>
		</g>
	</g>
	<g>
		<g>
			<path class="st0" d="M19.9,0.9C18.7,0.2,17.1,0,15.5,0C12.1,0,9,1.2,9,3.2c0,0.5,0,4.4,0,4.9c-0.6-0.2-1.2-0.2-2-0.2
				c-1.8,0-3.7,0.7-5,2.1c-1.3,1.3-2.1,3.2-2.1,5C0,18.8,3.2,22,7.1,22c1.3,0,2.6-0.4,3.7-1c1.2,0.6,2.9,1,4.8,1
				c1.6,0,3.2-0.2,4.4-0.9c1.3-0.6,2.1-1.5,2.1-2.4c0-0.4,0-15,0-15.5C22,2.3,21.3,1.5,19.9,0.9z M7.1,20.7c-3.2,0-5.7-2.6-5.7-5.7
				S3.9,9,7.1,9s5.9,2.6,5.9,5.9C13,18.1,10.3,20.7,7.1,20.7z M20.7,18.8c0,0.7-2.1,2-5.3,2c-1.3,0-2.6-0.2-3.5-0.6
				C12,20,12,20,12.1,19.9c0.6-0.6,1.1-1.2,1.3-2c0.6,0.1,1.3,0.1,2,0.1c1.7,0,3.8-0.4,5.3-1.2V18.8z M20.7,14.9c0,0.7-2.1,2-5.3,2
				c-0.5,0-1,0-1.6-0.1c0.1-0.6,0.2-1.2,0.2-1.8c0-0.2,0-0.5,0-0.7c0.5,0,0.9,0.1,1.3,0.1c1.7,0,3.8-0.4,5.3-1.2V14.9z M20.7,11
				c0,0.7-2.1,2-5.3,2c-0.5,0-1.1,0-1.6-0.1c-0.4-1.1-1-2.1-1.7-2.9c1,0.2,2.2,0.5,3.3,0.5c1.7,0,3.8-0.4,5.3-1.2V11z M20.7,7.1
				c0,0.7-2.1,2-5.3,2c-1.5,0-2.8-0.2-3.8-0.7c-0.9-0.4-1.3-0.9-1.3-1.2V5.3c1.3,0.9,3.4,1.2,5.1,1.2s3.8-0.4,5.3-1.2V7.1z
				 M15.5,5.1c-3.2,0-5.1-1.1-5.1-2s2-2,5.1-2s5.3,1.1,5.3,2S18.7,5.1,15.5,5.1z"/>
		</g>
	</g>
</g>
</svg>
