<?xml version="1.0" encoding="utf-8"?>
<!-- Generator: Adobe Illustrator 25.0.0, SVG Export Plug-In . SVG Version: 6.00 Build 0)  -->
<svg version="1.1" id="Layer_1" xmlns="http://www.w3.org/2000/svg" xmlns:xlink="http://www.w3.org/1999/xlink" x="0px" y="0px"
	 viewBox="0 0 22 22" style="enable-background:new 0 0 22 22;" xml:space="preserve">
<style type="text/css">
	.st0{fill:#FF7643;}
</style>
<g>
	<path class="st0" d="M3.5,8.9c0.2,0.2,0.6,0.2,1,0l1.6-1.8c0.2-0.2,0.2-0.7,0-1s-0.7-0.2-0.9,0L4,7.5L3.7,7.3c-0.2-0.2-0.7-0.2-1,0
		C2.4,7.6,2.6,8.1,2.8,8.2L3.5,8.9z"/>
	<path class="st0" d="M11.5,7.8H7.8c-0.4,0-0.6,0.2-0.6,0.6S7.5,9,7.8,9h3.7c0.4,0,0.6-0.2,0.6-0.6C12.2,8.1,11.9,7.8,11.5,7.8z"/>
	<path class="st0" d="M11.5,10.5H3.2c-0.4,0-0.6,0.2-0.6,0.6s0.2,0.6,0.6,0.6h8.3c0.4,0,0.6-0.2,0.6-0.6S11.9,10.5,11.5,10.5
		L11.5,10.5z"/>
	<path class="st0" d="M3.5,16.4c0.2,0.2,0.6,0.2,1,0l1.6-2c0.2-0.2,0.2-0.7,0-0.9c-0.2-0.2-0.7-0.2-0.9,0L4,14.9l-0.4-0.2
		c-0.2-0.2-0.6-0.2-0.9,0c-0.2,0.2-0.2,0.6,0,0.9L3.5,16.4z"/>
	<path class="st0" d="M11.5,15.2H7.8c-0.4,0-0.6,0.2-0.6,0.6s0.2,0.6,0.6,0.6h3.7c0.4,0,0.6-0.2,0.6-0.6S11.9,15.2,11.5,15.2z"/>
	<path class="st0" d="M11.5,17.8H3.2c-0.4,0-0.6,0.2-0.6,0.6s0.2,0.6,0.6,0.6h8.3c0.4,0,0.6-0.2,0.6-0.6S11.9,17.8,11.5,17.8z"/>
	<path class="st0" d="M20.4,0H8.2C8.1,0,7.9,0,7.7,0.1C7.6,0,7.5,0,7.3,0C6.8,0,6.2,0.2,5.9,0.6C5.6,0.9,5.5,1.1,5.4,1.5H4.6
		c-0.5,0-0.9,0.4-1,0.9H1.5C0.6,2.3,0,2.9,0,3.8v16.7C0,21.4,0.6,22,1.5,22h11.7c0.7,0,1.2-0.5,1.5-1.1h5.9c0.7,0,1.5-0.7,1.5-1.6
		V1.6C22,0.7,21.3,0,20.4,0L20.4,0z M5,2.7h0.9c0.4,0,0.6-0.2,0.6-0.6c0-0.5,0.4-0.7,0.9-0.7c0.5,0,0.9,0.4,0.9,0.7s0.2,0.6,0.6,0.6
		h0.9v0.7H5V2.7z M13.4,20.5c0,0.1-0.1,0.2-0.2,0.2H1.5c-0.1,0-0.2-0.1-0.2-0.2V3.8c0-0.1,0.1-0.2,0.2-0.2h2.3v0.1c0,0.6,0.5,1,1,1
		h5.1C10.5,4.8,11,4.3,11,3.8V3.5h2.3c0,0,0.1,0.1,0.1,0.2V20.5z M20.7,19.3c0,0.1-0.1,0.2-0.2,0.2l0,0h-5.7V3.8
		c0-0.9-0.6-1.5-1.5-1.5H11c0-0.5-0.5-0.9-1-0.9H9.3c0,0,0-0.1-0.1-0.1h11.1c0.1,0,0.2,0.1,0.2,0.2v17.7H20.7z"/>
</g>
</svg>
