<?xml version="1.0" encoding="utf-8"?>
<!-- Generator: Adobe Illustrator 25.0.0, SVG Export Plug-In . SVG Version: 6.00 Build 0)  -->
<svg version="1.1" id="Capa_1" xmlns="http://www.w3.org/2000/svg" xmlns:xlink="http://www.w3.org/1999/xlink" x="0px" y="0px"
	 viewBox="0 0 22 25.7" style="enable-background:new 0 0 22 25.7;" xml:space="preserve">
<style type="text/css">
	.st0{fill:#FF7643;}
</style>
<g>
	<g>
		<g>
			<path class="st0" d="M22,6.6L22,6.6c0-0.1,0-0.1,0-0.1l0,0l0,0c0,0,0-0.1-0.1-0.1l0,0l0,0L11.2,0c-0.1,0-0.4,0-0.5,0L0.2,6.2
				C0.1,6.2,0,6.5,0,6.7v12.5c0,0.1,0.1,0.2,0.2,0.5l10.4,6.1l0,0l0,0c0.4-0.1,0.4-0.1,0.5-0.1l0,0l0,0l10.4-6.1
				c0.1-0.1,0.2-0.2,0.2-0.5L22,6.6C22,6.7,22,6.6,22,6.6z M7.6,3l4.2,2.4c0.2,0.1,0.6,0,0.7-0.1c0.1-0.2,0-0.6-0.1-0.7l0,0L8.6,2.4
				L11,1l9.5,5.6l-2.4,1.5l-4.4-2.6c-0.2-0.1-0.6,0-0.7,0.1c-0.1,0.2,0,0.6,0.1,0.7l4,2.2L14.7,10L5.1,4.5L7.6,3z M17.6,9.5v3.2
				l-2.4,1.5V11L17.6,9.5z M21,18.7l-9.5,5.6v-1.5c0-0.2-0.1-0.5-0.5-0.5s-0.5,0.1-0.5,0.5v1.6L1,18.7V7l3.2-1.8l9.5,5.6L11,12.3
				L2.4,7.1c-0.2,0-0.6,0-0.7,0.2s0,0.6,0.1,0.7l8.6,5.1V21c0.1,0.1,0.2,0.2,0.6,0.2s0.5-0.1,0.5-0.5v-7.8l2.7-1.6v3.4
				c0,0.2,0.1,0.5,0.5,0.5c0.1,0,0.1,0,0.2,0l3.4-1.8c0.1-0.1,0.2-0.2,0.2-0.5V9L21,7.6V18.7z"/>
		</g>
	</g>
	<g>
		<g>
			<path class="st0" d="M2.4,15.8c-0.2,0-0.5,0.1-0.5,0.5v1.8c0,0.5,0.1,0.6,0.5,0.6s0.5-0.1,0.5-0.5v-1.8
				C2.8,15.9,2.7,15.8,2.4,15.8z"/>
		</g>
	</g>
	<g>
		<g>
			<path class="st0" d="M4.3,16.7c-0.2,0-0.5,0.1-0.5,0.5v1.8c0,0.2,0.1,0.5,0.5,0.5s0.5-0.1,0.5-0.5v-2C4.9,16.9,4.5,16.7,4.3,16.7
				z"/>
		</g>
	</g>
</g>
</svg>
